<?xml version="1.0" encoding="UTF-8"?>
<svg id="Camada_1" data-name="Camada 1" xmlns="http://www.w3.org/2000/svg" viewBox="0 0 143.04 130.08">
  <defs>
    <style>
      .cls-1 {
        fill: #070707;
      }
    </style>
  </defs>
  <path class="cls-1" d="M44.76,100.96c2.12,1.75,4.41,3.31,6.83,4.65v-8.04s0-61.78,0-61.78c3.28-2.28,6.94-4.05,10.87-5.2v79.26c2.22.54,4.5.91,6.83,1.11v-6.86s0-74.84,0-74.84v-6.86c-22.8,1.89-40.71,21-40.71,44.28,0,7.07,1.65,13.76,4.59,19.69l5.89-3.53c-2.34-4.89-3.65-10.37-3.65-16.16,0-9.5,3.53-18.17,9.34-24.79v59.08ZM76.73,110.96c2.33-.19,4.61-.56,6.83-1.1v-7.08s0-48.8,0-48.8l10.86,43.63,2.13,7.03c12.18-7.92,20.92-22.34,20.92-37.95,0-12.51-5.17-23.82-13.49-31.89l-4.87,4.81c7.11,6.84,11.53,16.44,11.53,27.09,0,10.07-3.97,19.21-10.41,25.96l-15.35-63-1.32-6.13c-2.22-.54-4.5-.91-6.83-1.1v6.86s0,74.84,0,74.84v6.86Z"/>
</svg>